<svg width="320" height="516" viewBox="0 0 320 516" fill="none" xmlns="http://www.w3.org/2000/svg">
<path d="M2.20459 1.85394V514.146" stroke="#F0F0F0"/>
<path d="M37.4802 1.85394V514.146" stroke="#F0F0F0"/>
<path d="M72.1262 1.85394V514.146" stroke="#F0F0F0"/>
<path d="M107.402 1.85394V514.146" stroke="#F0F0F0"/>
<path d="M142.048 1.85394V514.146" stroke="#F0F0F0"/>
<path d="M177.323 1.85394V514.146" stroke="#F0F0F0"/>
<path d="M211.969 1.85394V514.146" stroke="#F0F0F0"/>
<path d="M247.244 1.85394V514.146" stroke="#F0F0F0"/>
<path d="M281.89 1.85394V514.146" stroke="#F0F0F0"/>
<path d="M317.795 1.85394V514.146" stroke="#F0F0F0"/>
<path d="M2.51978 515H317.48" stroke="#F0F0F0"/>
<path d="M2.51978 412.542H317.48" stroke="#F0F0F0"/>
<path d="M2.51978 310.083H317.48" stroke="#F0F0F0"/>
<path d="M2.51978 207.625H317.48" stroke="#F0F0F0"/>
<path d="M2.51978 105.166H317.48" stroke="#F0F0F0"/>
<path d="M2.51978 1H317.48" stroke="#F0F0F0"/>
<path d="M2.51978 515H317.48" stroke="#F0F0F0"/>
<path d="M2.20459 1.85394V514.146" stroke="#F0F0F0"/>
<path d="M2.51978 488.532C2.51978 488.532 23.5172 441.401 37.5154 421.934C51.5137 402.467 58.5128 408.614 72.511 391.196C86.5093 373.778 93.5084 352.262 107.507 334.844C121.505 317.426 128.504 316.401 142.502 304.106C156.501 291.811 163.5 287.713 177.498 273.369C191.496 259.025 198.495 248.779 212.494 232.385C226.492 215.992 233.491 209.845 247.489 191.402C261.487 172.96 268.487 160.665 282.485 140.173C296.483 119.681 317.48 88.9436 317.48 88.9436" stroke="#A6CEE3" stroke-width="2"/>
<path d="M2.51969 495.362C1.85153 495.362 1.21074 494.642 0.738221 493.362C0.265707 492.081 0.000167117 490.344 7.88541e-08 488.533C-0.000166959 486.722 0.265052 484.984 0.737331 483.703C1.20961 482.422 1.85027 481.702 2.51843 481.701C3.18658 481.7 3.82751 482.418 4.30026 483.698C4.77301 484.978 5.03887 486.715 5.03937 488.526C5.03987 490.337 4.77497 492.075 4.30293 493.357C3.83089 494.639 3.19036 495.36 2.52221 495.362H2.51969Z" fill="#A6CEE3"/>
<path d="M37.1654 428.764C36.4973 428.764 35.8565 428.045 35.384 426.764C34.9115 425.483 34.6459 423.746 34.6458 421.935C34.6456 420.124 34.9108 418.386 35.3831 417.105C35.8554 415.824 36.496 415.104 37.1642 415.103C37.8323 415.102 38.4733 415.82 38.946 417.1C39.4188 418.38 39.6846 420.117 39.6851 421.928C39.6856 423.739 39.4207 425.477 38.9487 426.759C38.4766 428.041 37.8361 428.762 37.168 428.764H37.1654Z" fill="#A6CEE3"/>
<path d="M72.4411 398.026C71.7729 398.026 71.1321 397.307 70.6596 396.026C70.1871 394.746 69.9216 393.009 69.9214 391.198C69.9212 389.386 70.1864 387.649 70.6587 386.368C71.131 385.086 71.7717 384.366 72.4398 384.365C73.108 384.364 73.7489 385.083 74.2216 386.363C74.6944 387.643 74.9603 389.379 74.9608 391.191C74.9613 393.002 74.6964 394.74 74.2243 396.022C73.7523 397.303 73.1117 398.025 72.4436 398.026H72.4411Z" fill="#A6CEE3"/>
<path d="M107.087 341.675C106.418 341.675 105.778 340.955 105.305 339.675C104.833 338.394 104.567 336.657 104.567 334.846C104.567 333.035 104.832 331.297 105.304 330.016C105.777 328.735 106.417 328.014 107.085 328.014C107.753 328.013 108.394 328.731 108.867 330.011C109.34 331.291 109.606 333.028 109.606 334.839C109.607 336.65 109.342 338.388 108.87 339.67C108.398 340.952 107.757 341.673 107.089 341.675H107.087Z" fill="#A6CEE3"/>
<path d="M142.362 310.937C141.694 310.937 141.053 310.218 140.581 308.937C140.108 307.656 139.843 305.919 139.843 304.108C139.842 302.297 140.108 300.56 140.58 299.278C141.052 297.997 141.693 297.277 142.361 297.276C143.029 297.275 143.67 297.994 144.143 299.273C144.616 300.553 144.881 302.29 144.882 304.101C144.882 305.913 144.618 307.65 144.145 308.932C143.673 310.214 143.033 310.935 142.365 310.937H142.362Z" fill="#A6CEE3"/>
<path d="M177.008 280.199C176.34 280.199 175.699 279.48 175.227 278.199C174.754 276.919 174.488 275.182 174.488 273.37C174.488 271.559 174.753 269.822 175.226 268.541C175.698 267.259 176.339 266.539 177.007 266.538C177.675 266.537 178.316 267.256 178.789 268.536C179.261 269.816 179.527 271.552 179.528 273.364C179.528 275.175 179.263 276.912 178.791 278.194C178.319 279.476 177.679 280.197 177.01 280.199H177.008Z" fill="#A6CEE3"/>
<path d="M212.284 239.216C211.616 239.216 210.975 238.496 210.502 237.216C210.03 235.935 209.764 234.198 209.764 232.387C209.764 230.576 210.029 228.838 210.501 227.557C210.974 226.276 211.614 225.556 212.283 225.555C212.951 225.554 213.592 226.272 214.064 227.552C214.537 228.832 214.803 230.569 214.804 232.38C214.804 234.191 214.539 235.929 214.067 237.211C213.595 238.493 212.955 239.214 212.286 239.216H212.284Z" fill="#A6CEE3"/>
<path d="M246.929 198.233C246.261 198.233 245.62 197.513 245.148 196.233C244.675 194.952 244.41 193.215 244.41 191.404C244.41 189.592 244.675 187.855 245.147 186.574C245.619 185.293 246.26 184.572 246.928 184.571C247.596 184.571 248.237 185.289 248.71 186.569C249.183 187.849 249.449 189.586 249.449 191.397C249.45 193.208 249.185 194.946 248.713 196.228C248.241 197.51 247.6 198.231 246.932 198.233H246.929Z" fill="#A6CEE3"/>
<path d="M282.205 147.003C281.536 147.003 280.896 146.284 280.423 145.003C279.951 143.723 279.685 141.986 279.685 140.174C279.685 138.363 279.95 136.626 280.422 135.344C280.894 134.063 281.535 133.343 282.203 133.342C282.871 133.341 283.512 134.06 283.985 135.34C284.458 136.62 284.724 138.356 284.724 140.167C284.725 141.979 284.46 143.716 283.988 144.998C283.516 146.28 282.875 147.001 282.207 147.003H282.205Z" fill="#A6CEE3"/>
<path d="M317.48 95.774C316.812 95.774 316.171 95.0546 315.699 93.774C315.226 92.4934 314.961 90.7565 314.96 88.9452C314.96 87.1339 315.225 85.3966 315.698 84.1154C316.17 82.8341 316.811 82.1138 317.479 82.1129C318.147 82.112 318.788 82.8306 319.261 84.1105C319.733 85.3905 319.999 87.1271 320 88.9384C320 90.7496 319.735 92.4873 319.263 93.7692C318.791 95.0511 318.151 95.7722 317.483 95.774L317.48 95.774Z" fill="#A6CEE3"/>
</svg>
